<svg version="1" xmlns="http://www.w3.org/2000/svg" width="682.667" height="682.667" viewBox="0 0 512.000000 512.000000"><path d="M327.9 47.9c-8.1 2.7-12.1 6.6-26.4 26.1-3.4 4.7-14.2 18.4-16.7 21.1-4.3 4.8-8.4 6.2-16.2 5.5-47.7-4-69.8-3.3-93.6 2.7-7.6 1.9-22.9 8.1-32 13-27.3 14.6-53.8 39.5-69.2 65.2-4.3 7.1-13 25.3-14.8 31-.7 2.2-1.9 5.8-2.6 8-2.5 7.8-6.3 26.1-7.6 37-3.8 33 1.9 67.4 16.3 96.9 6.4 13.3 8.2 16.4 15.8 27.1 7.8 11 9.1 12.5 21.1 24.5 16.8 16.9 28 25.1 48.5 35.8 26 13.5 62.1 22.2 91.7 22.2 44.3 0 88.7-18.4 121.1-50.2 16.6-16.3 25.8-29.1 36.1-50.3 4.5-9.2 12-30.2 13.7-38.4 6.1-29.9 7.6-59.1 3.2-60.8-.7-.3-3.1.6-5.1 2.1-4.7 3.2-5.6 3.2-7 .2-.7-1.5-2.7-2.9-5.4-3.8-8.9-3-15.2-16.4-15.2-32.3 0-7.2.5-10 2.3-14.3 1.3-2.8 2.6-5.2 3-5.2.4 0 2.7-1.8 5.1-4 2.5-2.2 5.4-4 6.7-4 3.3 0 3.8-2.2 1.4-6.9-1.2-2.2-2.1-4.9-2.1-5.9 0-1.1 7.4-11.1 16.5-22.3 17.1-21.1 19-23.8 20.1-29.4 1.3-6.9-4.9-23-12.7-33.1-2.1-2.8-4.4-6.4-5-8.1-1.1-3.2-3.7-4.3-10.1-4.3-4.3 0-12.4 4.2-19.3 9.9-3.3 2.8-6.5 5.1-7.2 5.1-.6 0-2.3-1.4-3.6-3-1.4-1.7-3-3-3.6-3-1.6 0-1.3-2 .4-2.6.8-.4 1.5-1 1.5-1.4 0-2.1 10.4-10.8 17.3-14.5 2.3-1.3 4.3-3 4.5-3.8.6-2.7-20.1-17.2-33-23.2-15.5-7.1-31.3-10.7-37.9-8.6zM182 231c0 .5-1.4.7-3.2.3-4.6-.8-4.8-1.3-.5-1.3 2.1 0 3.7.4 3.7 1zm113.8.6c15.5 3.8 21 5.8 26.8 9.6 3.4 2.2 6.7 5.1 7.3 6.5 2.5 5.5.2 25.3-4 33.9-4.9 10.2-16.8 15.4-35.2 15.4-9.6 0-20.8-1.9-25.6-4.5-9.8-5.1-15.1-19-15.1-39.5 0-10.1.3-12.1 2-14.2 2.2-2.9 9.4-5.4 20.8-7.3 10.6-1.8 15.3-1.8 23 .1zM195.4 233c1.7.5 5.3 1.5 7.9 2.2 2.6.7 5.8 2.3 7 3.6 2 2.2 2.2 3.3 2.2 16 0 17.6-2.4 26.1-9.4 33.3-6.7 6.8-12.5 8.4-31.1 8.4-12.4-.1-15.4-.4-20.5-2.3-7.6-2.8-13.4-8.6-16.3-16.5-2.4-6.4-3.8-20-2.8-26.9.6-4.2 1.1-4.8 6.4-8.1 3.1-1.9 8.8-4.5 12.7-5.6 9-2.8 25.6-4.8 28.6-3.5 2.1 1 2.1 1.1-1.4 4.8-6.1 6.4-8.1 11.8-8.1 21.6.1 9.9 2.4 16 8 21 2.8 2.4 4.4 3 8.1 3 4 0 5-.5 8.8-4.3 9.3-9.3 10.1-28.2 1.6-38.8-1.7-2.1-3.1-4.4-3.1-5.1 0-.8-1.2-1.9-2.7-2.5-2.2-.8-2.4-1.1-.9-1.2 1.1-.1 3.3.3 5 .9zm57 109.6c1.8.7 2.2 6.4.6 9.4-2 3.6-7.4 6-13.8 6-7.1 0-8.2-1.1-8.2-8.3 0-5.1.8-5.7 7.3-5.8 3.3 0 11.5-1.2 12.4-1.8.1 0 .8.2 1.7.5zm-27.3 3c1.6.9.5 10.2-1.3 12-1.2 1.2-2.3 1.3-6.5.4-6.2-1.4-9.3-4.4-10-10.1l-.6-4.2 8.7.6c4.7.3 9.1.9 9.7 1.3z"/><path d="M265.4 239.5c-5.7 5.9-7.9 13.1-7.1 23.1.6 8.3 3 13.7 8.2 18.2 9 8 20.3.7 23.5-15.2 3-14.6-5.5-30.6-16.2-30.6-3.6 0-4.7.6-8.4 4.5zM451 109.8c0 1.3.5 3.2 1.1 4.4 1.8 3.4 1.1 33-1.2 50.6-1.1 8.6-2.3 17.6-2.6 19.9-.4 2.9-.2 4.3.6 4.3.6 0 1.1-1.7 1.1-4.2 0-2.3.7-6.4 1.4-9.2 2.8-9.6 4.1-23.1 4.1-41.1 0-16.6-.2-18.4-2.2-22.5-1.7-3.5-2.2-4-2.3-2.2zM445.8 194.8c-.3.9-.1 2.6.3 3.7.6 1.5.8 1.1.8-1.8.1-4-.4-4.8-1.1-1.9zM445 253.6c0 .8.5 1.2 1 .9.6-.3 1-1 1-1.6 0-.5-.4-.9-1-.9-.5 0-1 .7-1 1.6z"/></svg>